<?xml version="1.0" encoding="utf-8"?>
<!-- Generator: Adobe Illustrator 26.4.1, SVG Export Plug-In . SVG Version: 6.00 Build 0)  -->
<svg version="1.1" xmlns="http://www.w3.org/2000/svg" xmlns:xlink="http://www.w3.org/1999/xlink" x="0px" y="0px"
	 viewBox="0 0 1551.09 505.07" style="enable-background:new 0 0 1551.09 505.07;" xml:space="preserve">
<style type="text/css">
	.st0{fill-rule:evenodd;clip-rule:evenodd;fill:#EAEAEA;}
	.st1{fill:#EAEAEA;}
	.st2{font-family:'Standerd-Bold';}
	.st3{font-size:210.32px;}
	.st4{font-family:'Standerd-Regular';}
	.st5{fill:#999999;}
	.st6{font-family:'Standerd-Light';}
	.st7{font-size:86.4224px;}
	.st8{fill:#FCFCFC;}
</style>
<g id="BACKGROUND">
</g>
<g id="OBJECTS">
	<path class="st0" d="M20.58,210.38C2.9,304.17,44.87,402.97,132.21,453.4c110.58,63.84,251.96,25.95,315.79-84.62
		c52.16-90.35,36.41-201.25-31.41-273.63c47.67,67.39,54.85,159.04,10.87,235.22c-60.25,104.36-193.68,140.11-298.03,79.86
		C56.13,367.91,16.68,289.48,20.58,210.38L20.58,210.38z"/>
	<path class="st0" d="M428.8,253.21c14.92-79.14-20.5-162.51-94.2-205.06c-93.31-53.87-212.61-21.9-266.48,71.4
		C24.1,195.79,37.4,289.37,94.63,350.44c-40.22-56.86-46.29-134.2-9.18-198.48C136.29,63.9,248.88,33.73,336.94,84.57
		C398.79,120.29,432.09,186.47,428.8,253.21L428.8,253.21z"/>
	<g>
		<g>
			<text transform="matrix(1 0 0 1 492.5496 291.3215)"><tspan x="0" y="0" class="st1 st2 st3">Salone</tspan><tspan x="630.11" y="0" class="st1 st4 st3">EMR</tspan></text>
		</g>
		<g>
			<text transform="matrix(1 0 0 1 539.7708 388.0148)" class="st5 st6 st7">For a Healthier Sierra Leone</text>
		</g>
	</g>
	<path id="rect8_00000124861639028341939430000001428717574980852141_" class="st5" d="M132.79,320.31l-0.31,0.24l-0.51,0.41
		l-3.35,1.09l2.26,2.12l0.79,1.68l0.65,0.68l1.3-0.17l0.99,0.55l0.55,0.51l0.58,0.55l1.61,1.95l1.23,1.71l3.28,2.36l1.27,0.51
		l1.16,0.17l0.17,0.21l0.55-0.75l0.82-1.23l1.47-0.72l1.85-0.58l1.2,0.31l1.23-0.17l1.54-0.03l1.13,0.55l-0.68,0.14l-1.47-0.24
		l-1.23,0.17l-0.72,0.34l-0.51-0.03l-0.96-0.41l-1.37,1.06l-0.21-0.07l-0.41,0.21l-0.58,0.51l0.55,2.91l-0.1,0.38l0.55,0.68
		l0.34,0.44l0.55,0.31l0.51,0.99l0.96,0.41l0.27-0.1l0.24-0.44l0.24,0.03l0.62,1.13l0.65,0.55l0.62,0.99l1.27,0.41l1.33,1.54
		l0.38,0.14l0.55-0.03l1.13-0.51l0.14-0.07l1.3-0.1l2.7,1.06l0.79,0.14l0.99,0.34l0.51,0.03l1.23-1.09l0.27-0.51l0.48-0.51
		l0.03,0.99l-0.75,0.58l-0.24,0.51l0.51,0.65l2.57,0.31l0.51-0.17l0.41-0.38l0.48-0.17l1.4-1.33l2.87-1.88l0.24-0.24l0.21-0.24
		l1.81-0.99l1.54-1.23l0.89-1.23l0.72-2.02l0.48-0.17l0.21,0.51l0.38,0.34l0.03,0.03l-0.68,1.95l0.34,0.34l0.27,0.68l-0.03,0.62
		l-0.34,0.79l-0.75-1.27l-0.27-0.17l-0.41,0.38l-1.33,1.61l-0.89,2.02l-0.21,0.82l-0.48,0.68l-0.62,0.41l-1.61,0.14l-0.68,0.75
		l-0.17,0.82l0.03,0.07l0.21,0.58l0.82,1.2l1.64,0.75l0.68,0.79l0.68,0.31l0.51-0.62l0.14-0.51l1.54-0.79l0.1-0.17l1.81-0.79
		l0.17-0.34l0.24-0.17h0.24l0.44-0.48l0.14-0.51l0.17-0.07l0.21,0.75l-0.27,0.48l-3.73,2.33l-0.34,0.31l-0.1,0.55l0.21,0.58
		l0.48,0.48l1.51,1.27l0.34,0.79l0.38,1.81l0.14,0.48l0.34,0.89l-0.24,0.92l0.21,0.92l0.38,0.38l0.41,0.07l0.51-0.14l0.79,0.14
		l1.81-0.1l2.87,0.75l0.51-0.44l-0.14-0.51l-1.47,0.21l-0.51-0.24l-0.14-0.07l-0.03-0.24l0.82,0.07l0.79-0.21l0.14-0.24l0.48,0.14
		l0.27,0.31l0.34,1.57l0.48,0.27h0.65l0.34,0.34h0.31l0.34-0.27l0.24-0.55v-0.92l0.17-0.48l0.27-0.21l0.55,0.07l0.34,0.44l0.68,0.14
		l0.89,0.58l0.55,0.51l0.96,1.33l0.27,0.21l1.47,0.1l0.24,0.21l-0.44,0.31l-0.79,0.1l-0.55-0.21l-0.68-0.62l-0.62-0.86l-0.68-0.62
		l-1.06-0.58l-0.34,0.07l-0.72,1.47l-0.68,0.31l-1.4,0.07l-0.86-0.31l-1.98,0.72l-0.65-0.03l-1.27-0.03l-2.77,2.22l-0.31,0.51
		l-0.31,0.96l-1.06,1.81l-1.57,2.29l-0.17,0.68l0.31,0.38l0.62,0.34l0.07,0.03l1.13,1.37l0.62,0.31l0.65,0.03l1.2-0.44l1.44-0.17
		l1.44-0.17l0.65,0.24l1.57,1.09l0.99,1.06l1.64,0.79l0.14,0.07l1.37,1.23l1.3,1.06h0.51l1.2-0.72l0.55-0.27l0.82-0.1l0.62,0.21
		l0.38,0.38l-0.03,0.27l-0.92-0.31l-2.67,0.96l-0.51-0.07l-2.29-1.3l-2.12-0.75l-2.98-1.54l-0.17-0.1l-0.48-0.03l-0.58-0.07
		l-0.89,0.1l0.27-0.51l-0.27-0.21l-0.68,0.03l-0.58,0.17v0.68l-3.63,0.31l-0.41,0.31l-2.12,1.44l-0.96,0.07l-0.68,0.24l0.27,0.21
		l3.04,0.34l1.44,0.27l4.34,0.79l1.88,0.48l6.53,2.22l1.06,0.38l4,1.37l7.29,2.94l1.68,0.65l1.81,0.51l1.95,0.92l5.34,1.92
		l1.57,0.68l2.74,1.23l9.54,3.69l3.83,1.47l0.92,0.38l7.49,3.18l1.74,0.75l6.81,3.22l3.39,1.71l2.98,1.54l8.41,4.99l0.07,0.03
		l1.57,1.06l1.09,1.23l1.61,1.98l1.23,1.51l0.44,0.1l0.86-0.55l1.85-0.31l0.89-0.48l0.72,0.58l-2.09,1.98l-0.48,0.34l-0.55-0.07
		v0.21l3.97,1.37l-0.72-0.07l1.98,0.44l1.88,0.89l1.85,0.89l1.98,0.68l1.37-0.07l1.06,0.31l0.92-0.24l1.33-1.27l1.33-0.21l0.82,0.14
		l0.51-0.48l-0.75-1.33l-0.21-0.79l1.03-0.75l0.38-0.58l0.1-0.96h0.1l1.27,0.14l0.34-0.38l0.48-1.47l0.51-0.27l0.79-0.07l0.92-1.06
		l0.03-1.03l0.55-2.19l-0.21-0.48l-0.89-0.96l-0.03-0.51l0.31-0.51l0.38-0.27l0.14-0.1l0.17-0.07l0.51-0.14l2.74,0.34l0.17-1.54
		l0.17-0.48l-0.55-2.53l0.03-0.44l-1.09-0.89l-0.65-1.06l0.48-0.44h0.55l0.79,0.34l0.38-0.07l0.21-0.58l-0.38-0.75l0.27-0.48
		l1.09-0.55l0.17-1.09l0.55-0.75l-0.1-0.62l0.34-0.75l-0.24-0.72l-0.31-0.41l0.51-0.72l0.44,0.14l0.31,0.41l0.65,0.03l0.31,0.38
		l-0.65,0.79l0.31,0.21l0.38-0.07l0.51-0.58l0.21-1.33l0.68-1.23l0.55-0.65l0.48-0.1l0.65,0.24l0.75,0.03l0.58-0.48l0.55-0.41
		l0.92-0.03l0.34-0.41l0.89-0.07l0.41-0.41l0.89,0.24l1.3-0.38l1.13-0.79l0.86-0.07l0.31-0.27l0.1-0.24l-0.41-0.89l0.51-0.79
		l-0.03-0.82l0.55-0.72l-0.07-0.31l0.24-0.41l1.3-0.44l0.92-1.16l0.72-0.31l0.07-1.47l0.31-0.65l1.2-1.3l0.51-1.03l0.27-0.17
		l0.79-0.55l1.03-1.03l0.62-1.03l0.55,0.07l1.3-0.31l1.06-0.62l0.99-0.34l0.1-0.03l1.3-1.06l0.68-1.06l0.68-0.31l0.17-0.72
		l0.79-0.17l0.24-0.27l1.27-0.58l0.48-0.72l2.74-2.19l0.44-0.41l-0.17-0.51l0.14-0.1l1.03-0.65l1.2-1.13l1.47-0.65l0.41-0.62
		l0.31-0.07l0.21,0.14l0.58,0.99l0.58-0.03l0.75-0.79l0.62-0.1l0.62-0.34l1.13-1.13l1.61-0.68l0.03-0.03l0.31-0.14l1.81-1.13
		l0.79-0.68l0.34-0.68l0.48-0.44l0.1-0.65l1.2-0.03l0.65-1.06l-0.41-0.55l0.55-0.55l0.24-0.58l0.07-0.21l1.88-0.03l0.34-0.41
		l0.07-0.51l0.34-2.05l0.58-0.86l1.2-1.57l0.51-0.17l1.88-1.68l0.79-1.37l0.96-0.79l0.65-0.86l0.55-1.03l0.1-0.21l1.33-1.09
		l1.03-1.85l0.92-0.96l2.29-0.99l0.51-0.48l0.27-0.62l0.38-0.24l1.13-0.1l1.33-0.38l2.6-0.41l0.03-13.17v-3.66H143.09l1.54,0.82
		l-0.72,0.17l-0.65-0.24l-1.33-0.75L132.79,320.31L132.79,320.31z M175,342.85l-1.2,0.58l-1.23,1.09l-0.14,0.44l0.24,0.38l0.68-0.14
		l1.2-0.51l0.27-0.51l0.27-1.13L175,342.85L175,342.85z M118.22,347.1l-0.65,0.1l-0.58,0.38l0.1,0.44l1.47-0.55v-0.17L118.22,347.1
		L118.22,347.1z M121.75,348.53l-0.96,0.86l-0.44,0.14l-0.48,0.65l-0.27,0.03l-0.72,0.55l-0.27,0.03l-0.51-0.27l-0.1,0.24l0.1,0.65
		l0.21,0.38l1.2,0.55l0.86,0.41l-0.38-1.33l0.14-0.68l0.89-1.09l1.47-0.55l-0.24-0.38l-0.44-0.17L121.75,348.53L121.75,348.53z
		 M171.24,348.84l-0.38,0.07l0.1,0.82l0.72,1.37l0.68,0.79l1.54,0.55l0.41-0.21l-0.14-1.09l-1.2-0.92l-0.38-0.03L171.24,348.84
		L171.24,348.84z M125.17,350.58l-0.72,0.58l-0.07,0.34l0.1,0.14l0.51,0.17l0.65-0.72l-0.21-0.41l-0.24-0.1L125.17,350.58
		L125.17,350.58z M163.14,350.65l-3.35,0.58l-2.46-0.27l-1.16,0.17l-0.92,0.72l-0.38-0.07l-1.47,0.65l-0.24-0.31l-0.62-0.07
		l-2.22,0.31l-4.1-0.55l-1.23,0.44l-0.51,0.58h-0.65l-0.48-0.34l-0.62,0.07l-1.37,0.79l-0.34-0.07l-1.4-0.21l-1.57,0.03l-4.24,1.71
		l-0.82,1.06l0.14,0.14l0.58,0.51l1.09,0.24l0.48,0.82l-1.23-0.34l-1.71,0.17l-2.22-0.27l-1.06,0.79l0.38,0.17l1.47,0.07l4.38,0.86
		l0.34,0.07l6.12,1.54l1.78,0.65l3.35,0.86l1.47,0.55l0.65,0.21l1.47,0.21l2.33,0.62l4.21,1.4l3.93,1.54l4.38,1.71l2.12,1.27
		l1.06,0.82l0.82,1.13l0.62,1.27l0.03,0.96l-0.14,0.92l-0.07,0.38l-0.24,0.51l-0.58-0.75l0.24,1.27l0.14,0.44l1.57,0.34l1.51-0.03
		l1.06-0.31l0.1-0.99l-0.1-0.31l-0.24-0.68l-0.14-1.13l0.14-2.15l0.1-1.4l0.34-1.13l1.61-1.85l1.06-0.86l0.51-0.92l0.21-0.79
		l-0.34-0.82l0.1-0.65l-0.17-0.89l-1.61-1.85l-0.03-0.07l-0.21-0.68l-0.82-0.21l-0.58,0.51l-0.38-0.03l-0.68,1.23l-0.21,0.21
		l-0.82,0.27l-0.27,0.55l-0.24-0.17l-0.14-0.58l0.21-1.06h0.34l0.31,0.31l0.55-0.03l0.44-0.79l0.58-0.58l1.06-0.34l0.65,0.17
		l0.92,1.27l0.31,0.1l0.51-0.38l0.82-1.44l-0.17-0.48l-0.75-0.75l0.07-0.17l-0.65-0.68l-1.2-0.92l-1.16-0.89l-0.41,0.03l-1.27-0.68
		l-1.4-0.24l-1.27,0.1l-1.4,0.72l-0.65,1.44l0.24,0.31l0.44,0.07l0.1,0.17l-0.62,0.03l-0.34-0.17l-0.14-0.48l0.51-1.2l-0.17-0.38
		l-0.24-0.03l-0.14,0.14l-0.14,0.75l-0.48,0.44l-0.27,0.03l-0.65-0.79l-0.17,0.24L164.5,355l-0.03-0.55l0.14-0.41l0.48-0.03
		l0.51,0.82l0.48,0.31l0.14-0.03l0.07-0.72l0.72-0.68l0.86-0.55l0.86-0.31l-0.1-0.38l-1.23-1.4l-1.16-0.1l-3.04-0.31L163.14,350.65
		L163.14,350.65z M177.4,352.81l-0.99,0.1l-0.34,0.17l0.1,0.24l2.29,1.23l0.24-0.75h-0.03l-0.41-0.62L177.4,352.81L177.4,352.81z
		 M123.49,354.45l-0.27,0.17l-0.03,0.89l0.55-0.07l0.24-0.27l0.17-0.41l-0.17-0.24L123.49,354.45L123.49,354.45z M178.66,355.07
		l-0.41,0.51l0.55,0.92l0.21,0.07l0.17-0.34l-0.24-0.82L178.66,355.07z M124.35,355.51l-1.13,0.58l0.27,0.1l0.72-0.07l0.17-0.21
		L124.35,355.51L124.35,355.51z M125.85,355.82l-0.14,0.48l-0.55,0.34l-0.27-0.62l-0.72,0.72l3.25,1.54l0.62-1.09l-0.31-1.13
		L125.85,355.82L125.85,355.82z M178.53,360.16l-0.03,0.44l0.99,1.92l0.48,0.41l0.41-0.03l0.62-1.03l-0.14-0.89L178.53,360.16
		L178.53,360.16z M177.4,360.5l-0.31,0.34l-0.1,0.72l0.17,0.38l0.31-0.03l0.14-1.16L177.4,360.5L177.4,360.5z M177.71,361.87
		l-0.07,0.24l0.27,0.58l0.38,0.48l0.27,0.07l0.03-0.27l-0.51-1.03L177.71,361.87L177.71,361.87z M177.23,363.34l0.07,2.09l0.27-0.31
		l0.24-0.92l-0.55-0.86H177.23L177.23,363.34z M177.71,370.97l-0.24,0.38l0.14,0.44l0.38,0.44l0.75,0.14l0.07-0.21l-0.17-0.31
		l-0.21-0.1l-0.24-0.41L177.71,370.97L177.71,370.97z M184.38,372.89l-0.38,0.34l0.48,0.24l0.62,0.03l0.14,0.58l0.48,0.14l0.51,0.14
		l2.09,1.13l1.71,0.75h0.24l0.24-0.03l-0.44-0.55l-1.71-0.48l-0.68-0.92l-2.12-1.37L184.38,372.89L184.38,372.89z M273.48,418.86
		l-0.51,0.03l-0.62,0.34l-0.07,0.27l0.51,0.17l0.34-0.24L273.48,418.86L273.48,418.86z M277.21,423.2l0.1,0.17l3.42,1.81l0.44-0.07
		l-0.51-0.65l-2.36-0.99L277.21,423.2L277.21,423.2z"/>
	<path id="rect6_00000018207072396016184380000001241647654553855116_" class="st5" d="M93.05,210.85l-0.24,0.92l-0.03,1.44
		l0.34,0.55L94,213.9l1.37,0.24l0.41-0.24l0.62-0.72l0.72,0.1l0.79,0.82l0.27,0.48l0.17-0.03l0.34-0.44l0.41,0.38l0.72,0.31
		l0.62,0.41l2.19,1.54l0.21,0.24l0.1,0.44l0.72,0.75l1.27,0.34l0.44-0.07l0.82,0.17l0.34,0.41l0.89,1.44l-0.24,0.14l0.1,0.34
		l0.99,1.61l0.92,0.03l0.89,1.54l0.07,0.07l0.1,0.24l0.38,0.86l-1.33,0.31l-0.62-0.27l-1.64-0.14l-0.99-0.55h-0.38l-0.07,0.24
		l0.58,0.62l-0.17,0.34l-0.44-0.24l-1.27-1.2l-1.51-0.72l-0.79-0.07l-1.2,1.54l-0.86,0.38l-0.27,0.1l-0.72,0.89l-0.68,0.55
		l-0.58,2.77l0.34,1.4l-0.07,1.16l0.92,6.84l0.03,0.31l-0.14,0.38l-0.24-0.44l-0.17-1.09l-0.27-0.48l-0.17,0.62l0.24,1.68
		l-0.24,1.78l0.03,1.4l0.55,1.92l1.06,1.2l0.48,0.31l0.38,0.51l0.89,1.16l0.48,1.03l0.79,3.18l0.48,0.96l0.86,1.57l1.64,2.33
		l0.65,0.68l0.48,0.21l0.14,0.14l0.48,0.48l0.31,0.17h0.51l0.65-0.58l0.62-0.96l0.14-0.72l0.03-0.86l0.38-0.34l0.27-0.75l-0.1-0.51
		l0.07-0.79l1.09-1.57l0.75-1.85l-0.03-0.34l-0.75-0.75l1.16,0.27l0.31,0.24l0.65,0.14l0.65,0.38l-0.34,0.27l0.07,0.41l0.82,1.27
		l0.41,0.17l1.4-0.07l0.38,0.27l0.38,0.62l0.44-0.07l0.38-0.27l1.3-1.44l1.09-0.27l1.13-1.03l0.27,0.03l-0.24,0.72l0.24,0.24
		l0.89,0.03l0.03-0.03l1.23-0.79l0.82-0.03l0.99,0.24l1.33,0.72l0.55,0.1l0.55,0.38l1.09-0.14l0.44,0.34l-0.96,0.27l-0.24,0.31
		l0.48,0.44l0.55,0.07l0.62,0.65l0.62-0.07l0.62,0.55l-0.86,0.89l-1.23-0.14l-1.33,0.21l-0.68-0.21l-0.48,0.14l-0.55-0.68
		l-0.41,0.31l-1.51,0.03l-1.23,0.68l-0.55-0.03l-1.2-0.86l-0.31,0.55l-0.14,0.86l-1.51,1.44l-0.1,0.03l-0.41,0.24l-0.72,1.06
		l-0.99,2.26l-0.41,0.34h-1.09l-0.27,0.14l-0.48,0.82l-0.65,0.27h-0.72l-0.51-0.03l-0.24,0.24l-0.38,1.4l0.07,0.51l-0.31,0.58
		l-0.34-0.41l-0.31,0.1l-0.48,0.48l-0.82,0.31l-0.41,0.44l0.03,0.99l0.72,0.79l3.63,1.33l0.82,0.14l-0.44,0.65l-0.38,0.55
		l-0.27-0.48l-0.96,0.14l-0.38,0.31l-0.44-0.38l-1.13-0.31l0.27-0.34l-0.14-0.24l-0.86-0.62l-0.65,0.1l-0.62-0.24l-0.82-1.03
		l-0.82-1.44l-0.48-0.44l-0.48-0.1l-0.48-1.13l-0.86-0.62l-0.68-0.55l-0.1-0.31l-1.27,0.03l-0.51-0.48l0.14-0.41l-0.48-0.24h-0.07
		l-0.27-0.07l-0.31,0.38l-0.41-0.31l-0.79-0.07l-0.44,0.21l-0.38-0.17l-0.96,0.48l-0.38-0.55l-0.24-0.07l-0.31,0.17l-0.07,0.65
		l-0.27,0.21l-0.24-0.03l-0.41-1.03l-0.79-0.21l-0.27,0.48l-0.86,1.57l-0.03-1.09l0.14-0.31l0.31-0.21l-0.27-0.24l-0.58-0.14
		l-0.44-0.34h-0.82l-0.17,0.34l2.02,3.69l0.03,0.55l-0.24,1.4l-0.24,0.41l-0.27,0.07l-0.34,0.07l-0.38-0.27l-0.17,0.27l0.27,1.64
		l0.14,0.1l0.48-0.21l1.06,1.2l0.1,0.14l1.16,2.09l0.1,0.72l1.74,1.68l0.62,1.2l0.34,0.41l0.41,0.14v0.07l0.03,0.34l0.51,0.21
		l0.72-0.14l0.55,0.48l0.65,0.1l0.62,0.34l0.27,0.55l0.51,1.98l0.17,0.34l0.34,0.31l-0.41,0.51l0.75,0.79l0.38,0.72l0.51,0.24
		l0.99-0.55l0.51-0.03l0.27,0.24l-0.72,0.27l-0.03,0.07l-0.21,0.41l0.21,0.75l-0.68,1.3l0.24,0.27l0.58,0.1l0.14,0.34l0.14,0.92
		l-0.27,0.38l0.44,0.68l0.41,2.05l-0.31,1.06l-0.27,0.24l-0.24,1.09l0.03,1.13l-0.17,0.72l0.1,0.27h0.24l0.44,0.03l1.06-0.99
		l0.72-0.38l1.16-1.33l1.33-0.31l1.92-1.27l1.47-0.68l0.58-1.03l0.72-0.58l1.3-0.44l0.48-0.17h0.48l0.38,0.03l0.79,0.27l0.68-0.1
		l0.92-0.38l0.48,0.07l0.86,0.41l1.3-0.17l0.96,1.68l-0.41,0.99l0.07,0.48l1.47,2.05l0.65,0.38l0.34,0.51l1.13,0.92l0.75,1.13
		l0.27,0.17l2.05,3.42l0.27,0.58l0.03,0.14l0.03,0.44l0.44,1.06l0.75,0.41l0.07,0.96l0.72-0.14l0.62,1.16l0.1,0.31l-0.27,0.48
		l-0.17,0.82l-0.21,3.63l0.41,1.47l2.05,1.78l0.14,0.38l0.1,2.09l0.89,1.61l2.67,1.3l3.39,1.81h231.44v-0.82v-6.36l-0.24-3.35
		l1.33-0.55l0.86-0.21l0.89-0.48l0.92-0.92l4.58-7.53l0.99-1.03l1.4-0.65l1.44-0.21l3.04-0.41l0.68,0.07l1.57,1.06l0.48,0.07
		l2.09-0.1l1.61-0.07l1.3-0.79l0.62-0.17l0.75,0.07l0.41,0.27l0.62-0.17l1.13-1.16l1.44-0.51l0.68-1.85l2.67-2.46l0.31-2.05
		l-0.1-1.47l-1.09-1.85v-0.41l-0.07-0.79l0.58-6.64l0.34-1.37l0.34-0.65l1.23-1.51l0.1-0.07l0.51-1.51l-0.75-3.11h-0.07l0.75-6.26
		l-0.24-1.98l-1.61-0.41l-2.05-1.06l-1.03-0.41l-0.41,0.21l-1.2,0.51l-0.68,0.44l-1.09,0.38l-0.92,0.1l-1.37-0.58l-0.38,0.51
		l-0.44,1.23l-0.79,1.09l-0.75,1.61l-0.92,1.03l-0.86,0.44l-0.62,0.65l-1.51,2.77l-0.72,0.86l-1.13,0.65l-0.14,0.07l-0.68,1.23
		l-1.33,0.96l-0.65,1.27l-2.29,2.02l-0.92,0.55l-3.39,2.43l-0.79,0.27l-0.68-0.24l-1.27-0.07l-0.31-0.38l-0.41-1.51l-1.13-0.65
		l-3.76-0.24l-2.46-0.68h-0.65h-1.16l-1.44,1.92l-0.38,1.54l-0.65,0.48l-0.24,1.03l-0.07,2.12l-1.4,0.27l-0.51-0.03l0.21-0.75
		l0.51-0.44l-0.44-2.33l1.09-2.09l0.41-0.86l0.24-1.54l0.38-1.27l0.44-0.44l1.74-0.75l0.62-0.41l0.51-0.75l0.82-0.31l0.38-0.27
		v-0.21l0.1-1.09l-0.14-1.68l-0.41-0.82l0.44-1.78l0.14-0.41l-0.03-1.13l0.03-0.17l0.14-0.41l0.07-1.57l0.24-0.21l0.51-0.14
		l0.31-0.38l-0.03-0.41v-0.58l0.17-0.1l0.79,0.31l0.14-0.41l-0.38-0.99l0.21-0.86l0.72-2.05l0.21-1.03l0.48-0.17l1.06-0.27
		l0.58-0.38l0.79-1.57l0.48-0.48l0.75-0.24l0.21-0.38l-0.14-1.71l0.31-0.44l0.38-0.14l0.99,0.14l0.72-0.65l0.68-0.27l0.14-0.07
		l0.79-0.68l1.37-0.14l0.51,0.34l0.34-0.03l0.75-0.82l1.4-0.68l0.41-0.72l1.74-0.68l0.27-0.27l0.07-0.62l-0.34-0.62l0.27-0.79
		l1.03-1.54l-0.65-0.65l-0.75,0.07l-0.24-0.96l-0.99-1.33l-1.71-0.79l0.38-0.62l-0.55-0.75l-0.58-0.75l0.79-0.58l-0.14-0.38
		l-1.23,0.17l-0.24-0.38l-0.21-1.68l-0.89-1.61l-2.8-2.22l-0.48-0.79l-0.34-0.03l-0.62,0.34l-0.14-0.14l-0.24-0.24l-0.38,0.03
		l-0.38-0.31l0.17-1.4l0.21-0.41l-0.44-1.37l0.1-0.55l-0.68-3.63l-0.31-1.57l0.38-1.98l-0.03-0.65l-0.03-1.2l0.17-0.65l-0.31-0.55
		l-0.34-2.22l0.1-0.44l-0.14-1.09l0.07-0.41L93.05,210.85L93.05,210.85z M101.22,217.63l-0.89,0.1l-1.13,0.51l-0.41,0.48l0.03,0.48
		l0.96,1.37l0.34,0.21l0.72-0.1l1.95-0.96l0.38-0.38l-0.24-0.27l-0.68-0.27l-0.62-0.96L101.22,217.63L101.22,217.63z M106.42,220.67
		l-0.24,0.07l-0.14,0.31l0.31,0.44l0.89,0.65l0.21-0.24l-0.21-0.41L106.42,220.67z M112.27,251.39l-1.2,1.88l-0.27,0.62l0.14,0.31
		l0.55-0.07l1.16-1.3l0.27-0.62L112.27,251.39L112.27,251.39z M122.29,252.11l-0.62,0.27l-0.34,0.38l0.21,0.41l0.27,0.21l0.51-0.03
		l0.55-0.41l0.1-0.34l-0.27-0.34L122.29,252.11L122.29,252.11z M125.78,252.41l-0.79,0.38l-1.51,0.27l-0.89,0.65l0.07,0.21l0.41,0.1
		l0.82-0.24l0.38-0.27l0.75-0.03l0.41,0.27l0.48,0.07l0.75-0.21l1.27,0.03l-0.03-0.24h0.03l-0.44-0.58l-0.55-0.1l-0.48-0.31
		L125.78,252.41L125.78,252.41z M112.41,253.88l-0.24,0.03l-0.44,0.68l0.07,0.27l0.24,0.1l0.41-0.17l0.21-0.31l-0.07-0.44
		L112.41,253.88L112.41,253.88z M115.62,253.88l-1.03,0.48l-0.07,0.31l0.31,0.92l-0.31,1.09l0.27,0.48l0.21,0.14l1.51-0.92
		l0.34-0.07l0.27,0.34l0.44-0.24l0.41-0.51l-0.72-0.51l0.21-0.96l-0.27-0.27L115.62,253.88L115.62,253.88z M110.66,254.6l-0.21,0.68
		l0.31,0.24l0.34-0.07l0.17-0.27l0.03-0.31l-0.24-0.27L110.66,254.6L110.66,254.6z M111.45,255.77l-0.58,0.31l-0.27,0.38l0.03,0.51
		l0.24,0.07l0.31-0.27l0.44-0.55l0.03-0.31L111.45,255.77L111.45,255.77z M110.05,256.55l-0.31,0.21v0.65l0.14,0.21l0.27,0.1
		l0.14-0.34L110.05,256.55L110.05,256.55z M103.51,298.56l-0.65,0.31l-0.55,0.79l-1.54,1.13l-0.31,0.68l-1.03,0.44l-0.07,0.03
		l-0.44,0.38l-0.31,0.62l0.17,0.17l1.68-0.51l0.27-0.89h1.03l0.27-0.24l0.17-0.99l0.34-0.1l0.24-0.41l0.41-0.14l0.21-0.34
		L103.51,298.56z M136.15,318.7l-1.81,0.38l-1.54,1.23h9.13l-0.68-0.38l-3.01-1.03L136.15,318.7L136.15,318.7z"/>
	<path id="rect4_00000070833843136938285180000017265268469467263617_" class="st5" d="M311.38,103.89l-4.62,0.07l-6.53,0.14h-0.55
		l-13.34-0.1l-3.59-0.03l-1.81-0.03h-0.34l-6.5,0.14l-1.06-0.1h-0.21h-0.92l-0.58,0.03l-2.53,0.14l-4.07-0.14l-5.03,0.1l-2.53,0.03
		l-0.99-0.21l-3.56,0.27h-6.23h-5.99l-0.62,1.16l-0.72,4.24l-0.89,1.03l-0.31,0.1l-0.89,0.24l-0.75,0.38l-1.27,0.27l-9.54,2.91
		l-0.27,0.03l-1.64,0.31l-1.47,0.65l-1.88,0.38l-0.27,0.21l-2.53,0.79l-1.4,0.44l-0.68,0.03l-1.61-0.31l-1.16-0.58l-0.41-0.24
		l-2.15-1.57l-2.87-1.03l-0.82-0.72l-0.24-0.51l-0.79-0.58l-0.48-0.03l-3.9,0.89l-2.39,0.55l-0.21,0.24l-6.67,1.3l-1.33,0.07
		l-0.55,0.31l-1.78,0.38l-0.58,0.14l-3.97,0.65l-0.62,0.44l-0.65,1.16l-0.92,0.96l-0.48,0.24l-2.39-0.07l-1.98,1.23v0.44l-0.17,0.48
		l0.1,0.27l0.31,0.24l0.44,0.1l0.24,0.31l-0.14,1.54l-0.62,0.1l-0.31,0.24l-0.14,1.98l-1.03,1.47l-0.1,1.2l-0.65,0.75v0.24
		l1.03,0.48l0.14,0.38l-0.21,0.31l-1.44-0.03l-0.27,0.17l-0.21,0.55l0.89,2.33v0.27v0.44l-0.31,0.21l-0.34-0.07l-0.34-0.31
		l-0.48-1.16l-0.27-0.07l-0.41,0.41l-0.79,0.82l-0.96,0.58l-1.03,0.07l-0.24,1.09l0.1,0.89l-0.17,0.65l-0.48,0.79l-0.14,1.06
		l-0.31,0.17l-0.51-0.55l-0.41,0.03l-0.24,0.27l-0.21,0.68l0.38,1.23l0.24,0.72v0.41l0.03,0.27l-0.58,1.71l-0.1,1.3h-0.07
		l-0.79-0.07l-1.57-0.58l-0.65,0.55l-0.27,0.82l-0.72,2.19l-0.58,0.72l-0.03,0.44l0.41,0.89l-0.17,0.44l-0.89-0.14l-0.55,0.17
		l-0.99,0.92l-0.31,0.75l0.21,0.03l0.75,0.75l0.21,0.82l-0.14,0.82l-2.26,3.49l0.07,0.65l-0.14,0.24l-0.62,0.34l-0.07,0.38
		l-0.1,0.99l-0.38,0.79l0.41,0.44V163l-0.58,0.48l0.21,0.99l-0.27,0.38l-0.07,0.55v0.34l-0.24,0.17l-0.24-0.07l-0.75-0.86
		l-0.51,0.07l-0.58,0.48l-0.24,0.99l-0.1,1.27l-0.51-0.1l-0.72-0.51l-2.98-0.14l-0.58,0.86v1.2l0.14,1.13l0.51,1.09l0.1,0.65
		l-0.27,0.48l-0.38,0.27l-2.09-0.03l-0.21,0.27l0.03,0.68l-0.31,0.99l-0.38,0.75l-0.31,0.1l-0.17,0.34l0.14,0.89l-0.14,0.34
		l-0.48,0.34l-1.3,0.41l-0.58,0.72l-0.44,0.1l-0.07-0.07l-0.82-0.48h-0.68l-0.99,0.58l-0.38-0.17l-1.33-0.92l-1.16,0.07l-0.48-0.31
		l-0.34,0.17l-0.51,1.95l-1.23,0.79l-0.82-0.07l-1.64-1.2l-1.06-0.41l-0.89-0.03l-0.72,0.92l-0.21,0.24l-0.89,2.74l-0.68,1.47
		l0.51,4.75l-0.21,0.82l-1.47,1.09l-0.34,0.68v0.65l-0.79,2.77l-0.72,1.3l-0.41,0.75l-1.09,1.61l-1.03,0.68l-0.68,0.34l-1.85-0.07
		l-0.79,0.17l-0.75,0.41l-0.79,2.53l-1.16,0.65l-0.96,0.21l-0.96,0.21l-2.09-0.14l-1.61-0.86l-2.98-2.94l-1.2-0.58l-1.16-0.1
		l-0.58,0.24l-0.92,0.58l-1.92,1.27l-0.92,0.1l-2.15-0.41l-1.2,0.03l-2.12,0.82l-0.89,0.55l-0.55,0.58l-0.72,0.41l-1.27,1.16
		l-0.75,0.41l1.54,3.04l0.34,1.09l-0.07,0.31l-0.44,1.81h282.1l0.31-2.33l0.07-0.34l0.24-0.65l0.44-0.31l0.17-0.41l0.07-1.61
		l0.17-0.48l-0.1-0.72l-0.51-0.65l-0.44-0.58l-1.98-1.23l-0.44-0.14l-0.51-0.17l-0.07,0.21l-1.09-0.21l-2.84-1.27l-1.54,0.03
		l-3.45,0.62l-2.29-0.38l-0.38-0.55l0.14-0.31l0.21-0.44l0.41-2.63v-1.51l1.23-1.33l0.03-2.05l-0.96-2.09l0.51-1.47l0.55-0.1
		l0.14,0.24l0.31,0.44l1.4-0.21l1.3-0.48h0.38l1.16-0.51l0.48-0.68l-0.07-1.74h0.1l-1.2-1.33l-0.07-1.13l0.48-1.64l0.38-0.92
		l0.62-1.61l-0.21-1.09l-0.55-0.92l-2.15-1.61l-1.88-0.58l-0.44-0.48l0.14-0.31l-0.07-1.13l-1.47-2.43l-0.65-0.89l-0.75,0.65
		l-0.27-0.14l-0.75-0.99l-1.23-0.14l-1.06,0.48l-1.03-0.17l-0.34-0.24l-0.68-0.48l-0.99-0.07l-0.55,1.03h-0.55l-0.51-0.58
		l-0.21-0.58l0.44-0.96l0.82-0.65l0.27-0.72l-0.48-0.62l-0.99-0.58l-1.16-0.99l-0.89-0.31l-0.79-0.48l-0.07-0.1l-0.51-1.16v-0.72
		l0.79-0.96v-0.58l-0.75-1.54v-0.44l0.38-0.58l1.47-0.65l0.48-0.75l-0.14-0.38l-0.34-0.27l-2.74-0.41l-0.38-0.27l-1.37-1.09
		l0.38-0.58l1.16-0.99l-0.03-0.58l-1.98-1.64l-1.81-2.09l-0.89-0.07l-0.75-0.79l-0.14-1.37L342,142.3l-0.65-0.89l-0.07-0.89
		l-0.51-0.48l-0.65-0.21l-1.16,0.03l-1.13-0.17l-0.86-0.65l-0.51-0.99l-0.31-2.53l-0.34-0.86l-0.38-0.82l-0.65-1.16l-2.12-2.7
		l-0.89-0.89l-2.74-4.04l-1.06-1.03l-2.19-2.12l-2.77-1.85l-0.1-0.24l-4.75-2.22l-1.06-0.92l-0.14-0.14l-0.62-1.16l-0.48-2.33
		l-0.27-3.35l-0.44-2.26l-0.38-0.99l-2.09-1.61l-1.16-0.92l-0.07-0.03h-0.03H311.38L311.38,103.89z"/>
	<path class="st8" d="M270.37,360.6c-0.02,0-0.04,0-0.05,0c-0.91-0.03-1.65-0.73-1.73-1.64L252.2,158.39l-25.64,142.29
		c-0.15,0.85-0.89,1.47-1.76,1.47h0c-0.86,0-1.6-0.62-1.76-1.47l-11.71-64.36l-7.89,16.77c-0.29,0.63-0.92,1.03-1.62,1.03H101.28
		c-0.99,0-1.79-0.8-1.79-1.79c0-0.99,0.8-1.79,1.79-1.79h99.42l9.78-20.79c0.33-0.7,1.08-1.12,1.85-1.01
		c0.77,0.1,1.39,0.69,1.53,1.45l10.94,60.15l26.32-146.04c0.16-0.88,0.95-1.49,1.84-1.47c0.9,0.04,1.62,0.74,1.69,1.64l16.19,198.12
		l16.72-119.46c0.13-0.89,0.8-1.54,1.8-1.54c0.9,0.02,1.65,0.7,1.75,1.59l6.66,62.04l9.33-33.38c0.21-0.77,0.92-1.3,1.72-1.3h109.83
		c0.99,0,1.79,0.8,1.79,1.79c0,0.99-0.8,1.79-1.79,1.79H310.16l-11.47,41.03c-0.23,0.82-1.01,1.38-1.87,1.3
		c-0.85-0.07-1.54-0.74-1.63-1.59l-6.11-56.92l-16.95,121.13C272.01,359.95,271.25,360.6,270.37,360.6z"/>
</g>
</svg>
